<?xml version="1.0" standalone="no"?>
<!DOCTYPE svg PUBLIC "-//W3C//DTD SVG 20010904//EN"
 "http://www.w3.org/TR/2001/REC-SVG-20010904/DTD/svg10.dtd">
<svg version="1.0" xmlns="http://www.w3.org/2000/svg"
 width="64.000000pt" height="64.000000pt" viewBox="0 0 64.000000 64.000000"
 preserveAspectRatio="xMidYMid meet">
<metadata>
Created by potrace 1.13, written by Peter Selinger 2001-2015
</metadata>
<g transform="translate(0.000000,64.000000) scale(0.100000,-0.100000)"
fill="#000000" stroke="none">
<path d="M202 591 c-93 -32 -142 -95 -142 -182 0 -39 9 -71 40 -135 39 -83 49
-137 31 -172 -4 -9 -11 -32 -14 -50 l-7 -33 143 3 c139 3 142 4 145 25 2 15
12 25 28 28 13 3 35 7 49 10 29 6 28 5 46 94 9 39 21 68 31 75 24 14 23 23 -9
69 -18 25 -28 54 -30 86 -4 65 -26 114 -68 149 -66 54 -150 65 -243 33z m46
-31 c15 0 26 -8 32 -24 7 -18 14 -23 29 -19 12 3 21 9 21 14 0 5 15 9 34 9 26
0 38 -7 52 -27 22 -34 19 -60 -9 -91 -17 -18 -27 -21 -51 -16 -17 4 -36 13
-42 22 -9 13 -12 13 -17 -2 -4 -9 -13 -16 -21 -16 -22 0 -28 -30 -11 -56 33
-50 3 -104 -58 -104 -47 0 -77 87 -39 110 16 10 16 10 0 20 -10 6 -18 17 -18
24 0 8 -10 20 -22 28 -19 13 -21 18 -9 31 7 9 11 22 8 29 -6 18 11 48 27 48 8
0 17 7 20 16 4 11 13 14 29 10 12 -3 32 -6 45 -6z"/>
<path d="M174 485 c-10 -38 24 -72 55 -55 17 9 21 19 19 43 -3 28 -7 32 -35
35 -28 3 -33 -1 -39 -23z"/>
<path d="M340 471 c0 -26 17 -36 35 -21 23 19 18 40 -10 40 -18 0 -25 -5 -25
-19z"/>
<path d="M193 331 c-9 -14 -9 -21 0 -30 27 -27 61 4 37 34 -16 20 -23 19 -37
-4z"/>
</g>
</svg>
