<?xml version="1.0" standalone="no"?>
<!DOCTYPE svg PUBLIC "-//W3C//DTD SVG 20010904//EN"
 "http://www.w3.org/TR/2001/REC-SVG-20010904/DTD/svg10.dtd">
<svg version="1.0" xmlns="http://www.w3.org/2000/svg"
 width="1000.000000pt" height="1000.000000pt" viewBox="0 0 1000.000000 1000.000000"
 preserveAspectRatio="xMidYMid meet">
<metadata>
Created by potrace 1.11, written by Peter Selinger 2001-2013
</metadata>
<g transform="translate(0.000000,1000.000000) scale(0.100000,-0.100000)"
fill="#000000" stroke="none">
<path d="M4465 9743 c-33 -2 -132 -10 -220 -19 -982 -97 -1879 -488 -2509
-1094 -469 -451 -746 -1013 -841 -1705 -23 -165 -31 -529 -16 -707 31 -354
105 -663 246 -1023 115 -293 213 -493 530 -1080 346 -641 522 -1041 560 -1278
19 -119 19 -321 -1 -456 -24 -165 -58 -295 -154 -581 -98 -292 -147 -482 -245
-945 -36 -171 -79 -372 -95 -448 -17 -76 -30 -142 -30 -147 0 -6 872 -10 2361
-10 l2361 0 -8 77 c-4 43 -7 193 -7 333 0 352 24 473 98 491 17 4 163 15 325
24 344 19 448 29 585 57 256 52 478 169 600 313 189 226 276 519 260 875 -4
85 -7 176 -8 201 -2 44 2 51 51 103 97 102 122 212 84 363 l-20 81 47 49 c88
91 140 236 126 347 -8 62 -33 122 -77 182 -32 44 -32 46 -13 60 10 8 29 14 41
14 12 0 66 11 120 25 403 102 597 385 488 713 -48 143 -259 466 -467 714 -217
260 -282 359 -329 508 -19 64 -23 95 -22 205 0 72 8 181 17 243 32 215 18 402
-58 759 -263 1249 -965 2125 -2015 2516 -504 188 -1130 273 -1765 240z m-1197
-915 c13 -14 31 -64 47 -129 l27 -106 111 -6 c68 -4 151 -16 212 -32 55 -14
102 -25 106 -25 3 0 32 42 63 94 60 99 92 125 137 111 41 -13 298 -175 314
-198 25 -36 18 -65 -44 -167 l-59 -98 45 -43 c57 -57 131 -157 177 -240 l37
-67 92 24 c181 47 190 41 240 -177 44 -189 43 -178 34 -211 -9 -35 -39 -50
-158 -78 l-96 -23 -6 -116 c-4 -75 -15 -151 -31 -216 -20 -77 -23 -101 -13
-107 112 -65 183 -118 191 -141 14 -37 5 -58 -94 -220 -113 -184 -123 -188
-269 -97 -44 27 -85 50 -89 50 -5 0 -40 -28 -78 -61 -73 -66 -190 -147 -242
-168 -18 -8 -32 -19 -32 -27 0 -7 11 -58 25 -114 37 -157 32 -162 -198 -218
-237 -58 -228 -63 -282 159 l-17 66 -116 6 c-80 3 -148 13 -216 31 -54 15
-100 25 -101 24 -1 -2 -26 -43 -56 -91 -57 -95 -79 -117 -119 -117 -30 0 -303
163 -331 198 -10 14 -19 34 -19 46 0 12 27 67 60 122 l60 99 -54 55 c-64 65
-153 188 -180 248 -10 23 -25 42 -33 42 -8 0 -59 -11 -113 -25 -108 -27 -137
-24 -164 17 -17 28 -86 307 -86 352 0 58 34 75 231 120 26 6 26 7 32 118 4 72
15 151 32 216 15 57 25 105 23 106 -2 2 -43 27 -91 57 -95 57 -117 79 -117
118 0 27 151 282 192 324 14 15 37 27 51 27 13 0 68 -27 122 -59 l99 -59 71
65 c61 56 230 173 268 186 9 3 6 28 -11 98 -44 183 -40 188 168 239 186 46
219 48 248 18z m2393 -414 c10 -9 26 -49 35 -89 l17 -74 76 -6 c72 -6 176 -26
212 -40 12 -4 27 12 59 65 45 75 71 91 112 69 79 -41 193 -117 206 -138 17
-26 18 -23 -48 -137 l-24 -42 52 -57 c29 -31 68 -84 88 -118 20 -34 37 -63 39
-65 1 -2 30 4 63 12 85 22 119 21 135 -6 8 -13 27 -76 42 -141 26 -113 26
-119 9 -138 -9 -10 -34 -24 -56 -29 -21 -6 -56 -15 -78 -20 l-40 -11 0 -67 c0
-38 -9 -105 -21 -151 -11 -45 -19 -84 -17 -85 1 -2 31 -20 66 -41 95 -56 96
-65 27 -182 -67 -114 -91 -143 -117 -143 -11 0 -51 19 -89 41 l-69 41 -58 -53
c-32 -30 -86 -70 -120 -89 -34 -19 -61 -42 -62 -50 0 -8 7 -40 15 -70 19 -72
19 -86 -4 -109 -27 -27 -246 -77 -276 -63 -22 10 -37 47 -59 143 -5 25 -10 27
-87 34 -45 3 -114 15 -153 25 -39 10 -72 15 -74 11 -1 -4 -21 -36 -45 -72 -28
-43 -49 -65 -65 -67 -22 -3 -112 44 -209 110 -55 37 -55 62 -3 147 l39 64 -54
61 c-30 33 -71 89 -91 123 -20 35 -39 63 -43 63 -3 0 -31 -7 -61 -15 -69 -19
-105 -19 -123 -1 -16 16 -67 210 -67 254 0 39 12 47 100 69 l75 19 6 77 c4 42
15 111 25 154 10 44 14 78 8 80 -5 2 -37 21 -71 43 -83 52 -83 66 0 201 82
133 90 137 187 80 l72 -43 37 34 c48 45 105 88 163 121 l46 27 -20 77 c-19 75
-19 77 0 102 15 21 40 31 128 53 130 32 142 33 165 12z m-2320 -2410 c10 -9
25 -49 35 -89 l17 -72 81 -7 c45 -3 113 -14 152 -24 l70 -19 43 69 c64 103 70
102 244 -9 95 -61 99 -74 47 -162 l-42 -71 36 -43 c35 -40 131 -177 138 -196
2 -6 35 -2 79 8 80 19 111 15 127 -16 5 -10 22 -69 37 -131 37 -152 35 -155
-120 -189 l-40 -9 -6 -91 c-4 -50 -14 -115 -23 -146 -9 -30 -16 -57 -16 -60 0
-3 29 -24 65 -47 99 -62 100 -68 25 -195 -35 -59 -74 -114 -87 -122 -23 -15
-27 -15 -66 5 -23 12 -59 31 -79 43 l-37 22 -55 -51 c-31 -28 -84 -67 -119
-88 -34 -21 -64 -39 -66 -40 -2 -2 4 -37 14 -78 17 -80 14 -110 -13 -125 -9
-5 -70 -21 -134 -36 -134 -31 -152 -27 -167 33 -5 20 -15 56 -21 79 l-10 41
-68 6 c-37 4 -105 15 -152 26 -66 15 -86 17 -92 7 -97 -162 -93 -160 -230 -77
-56 34 -109 70 -115 78 -21 26 -15 54 26 121 l38 64 -59 71 c-32 38 -73 94
-89 123 -17 29 -34 53 -37 53 -4 0 -32 -7 -62 -15 -72 -19 -103 -19 -123 3
-17 19 -67 204 -67 251 0 33 23 54 75 65 17 4 46 11 66 17 l36 9 6 88 c4 49
15 116 26 150 l19 62 -59 36 c-75 45 -89 60 -89 90 0 22 92 184 128 227 23 26
56 21 128 -23 l65 -41 56 51 c30 27 85 68 123 91 l68 40 -20 76 c-25 99 -18
117 54 137 175 50 212 54 239 30z"/>
<path d="M3218 8226 c-262 -60 -466 -219 -578 -449 -61 -128 -83 -236 -77
-387 5 -139 21 -210 72 -317 200 -426 698 -597 1119 -386 198 98 344 274 416
498 34 106 40 312 11 426 -42 171 -149 340 -283 448 -72 59 -215 132 -303 156
-81 22 -301 28 -377 11z"/>
<path d="M5600 7984 c-102 -27 -180 -73 -261 -153 -118 -118 -171 -242 -172
-400 -1 -518 618 -777 983 -411 224 224 224 582 1 809 -75 76 -190 140 -289
160 -72 15 -196 13 -262 -5z"/>
<path d="M3265 5571 c-246 -71 -417 -294 -418 -546 0 -171 51 -293 173 -415
123 -124 262 -177 435 -167 114 7 196 35 292 100 252 168 325 504 168 773 -68
117 -211 222 -352 259 -76 20 -222 18 -298 -4z"/>
</g>
</svg>
